<?xml version="1.0" encoding="UTF-8" standalone="no"?>
<!DOCTYPE svg PUBLIC "-//W3C//DTD SVG 1.1//EN" "http://www.w3.org/Graphics/SVG/1.1/DTD/svg11.dtd">
<svg width="100%" height="100%" viewBox="0 0 24 24" version="1.1" xmlns="http://www.w3.org/2000/svg" xmlns:xlink="http://www.w3.org/1999/xlink" xml:space="preserve" xmlns:serif="http://www.serif.com/" style="fill-rule:evenodd;clip-rule:evenodd;stroke-linejoin:round;stroke-miterlimit:2;">
    <circle cx="12" cy="12" r="12" style="fill:url(#_Linear1);"/>
    <path d="M17.251,16.78L13.192,6.971C13.049,6.529 12.639,6.225 12.175,6.216L11.816,6.216C11.352,6.225 10.942,6.529 10.799,6.971L9.033,11.245L7.697,11.245C7.299,11.247 6.972,11.572 6.969,11.97L6.969,11.98C6.972,12.378 7.299,12.703 7.697,12.705L8.415,12.705L6.73,16.78C6.698,16.869 6.681,16.963 6.68,17.058C6.672,17.259 6.744,17.456 6.88,17.605C7.021,17.749 7.218,17.825 7.419,17.814C7.57,17.812 7.716,17.764 7.838,17.675C7.966,17.58 8.065,17.453 8.127,17.307L9.98,12.706L11.267,12.706C11.665,12.704 11.992,12.379 11.995,11.981L11.995,11.961C11.992,11.563 11.665,11.238 11.267,11.236L10.58,11.236L11.995,7.707L15.854,17.307C15.916,17.453 16.015,17.58 16.143,17.675C16.265,17.764 16.411,17.812 16.562,17.814C16.763,17.825 16.96,17.749 17.101,17.605C17.237,17.456 17.309,17.259 17.301,17.058C17.305,16.963 17.288,16.868 17.251,16.78Z" style="fill:white;fill-rule:nonzero;"/>
    <defs>
        <linearGradient id="_Linear1" x1="0" y1="0" x2="1" y2="0" gradientUnits="userSpaceOnUse" gradientTransform="matrix(-17.856,15.024,-15.024,-17.856,21.768,5.448)"><stop offset="0" style="stop-color:rgb(182,80,158);stop-opacity:1"/><stop offset="1" style="stop-color:rgb(46,186,198);stop-opacity:1"/></linearGradient>
    </defs>
</svg>
