<?xml version="1.0" encoding="UTF-8" standalone="no"?>
<!DOCTYPE svg PUBLIC "-//W3C//DTD SVG 1.1//EN" "http://www.w3.org/Graphics/SVG/1.1/DTD/svg11.dtd">
<svg width="100%" height="100%" viewBox="0 0 191 191" version="1.1" xmlns="http://www.w3.org/2000/svg" xmlns:xlink="http://www.w3.org/1999/xlink" xml:space="preserve" xmlns:serif="http://www.serif.com/" style="fill-rule:evenodd;clip-rule:evenodd;stroke-linejoin:round;stroke-miterlimit:2;">
    <path d="M0,97.63L0,93.35C0.45,90.24 0.65,87.1 0.82,84C3.82,57.66 16.35,36.65 36.82,20.2C49.203,10.032 64.14,3.449 80,1.17C106.36,-2.54 130.81,2.35 152.29,18.69C169.72,32 182,49 187.67,70.35C190.458,81.049 191.401,92.144 190.46,103.16C189.3,118.26 185.13,132.41 176.91,145.16C162.42,167.65 142.53,183.06 116.05,188.33C78.34,195.84 46.58,184.9 21.56,155.46C11.073,143.154 4.155,128.208 1.56,112.25C1.26,110.51 1.06,108.77 0.82,107.02L0,97.63ZM180.25,95.13C180.55,89.939 180.19,84.731 179.18,79.63C177.524,70.417 174.293,61.557 169.63,53.44C163.869,43.656 156.337,35.029 147.42,28C139.101,21.337 129.528,16.413 119.27,13.52C113.237,11.699 106.989,10.69 100.69,10.52C99.18,10.52 97.69,10.02 96.18,10.23C94.365,10.48 92.532,10.58 90.7,10.53C88.466,10.558 86.238,10.772 84.04,11.17C75.895,12.29 67.947,14.549 60.43,17.88C40.479,26.9 24.758,43.278 16.56,63.58C13.105,72.093 11.077,81.117 10.56,90.29C10.251,96.032 10.519,101.791 11.36,107.48C12.397,115.322 14.559,122.975 17.78,130.2C24,144.06 33.64,155.28 45.7,164.34C60.08,175.14 76.56,180 94.43,180.41C97.14,180.47 99.83,180.26 102.54,180.05C105.954,179.813 109.351,179.366 112.71,178.71C121.033,177.103 129.042,174.165 136.43,170.01C147.941,163.508 157.867,154.532 165.49,143.73C170.211,137.165 173.872,129.9 176.34,122.2C179.287,113.492 180.613,104.316 180.25,95.13Z" style="fill:rgb(196,186,174);fill-rule:nonzero;"/>
    <path d="M65.12,59.64L65.12,52.64C65.21,47.52 67.91,43.49 72.35,41.78C77.139,39.793 82.689,40.993 86.23,44.78C88.144,46.764 89.219,49.413 89.23,52.17L89.23,59.48C91.44,59.93 93.58,59.63 95.7,59.69C97.82,59.75 99.83,59.69 102.02,59.69C102.26,57.78 102.32,55.851 102.2,53.93C102.172,52.492 102.309,51.056 102.61,49.65C103.935,44.528 108.599,40.926 113.89,40.94C119.73,40.85 124.52,44.17 125.89,49.3C126.238,50.781 126.402,52.299 126.38,53.82L126.38,59.27C126.93,59.95 127.62,59.7 128.22,59.7L141.89,59.7C142.768,59.662 143.648,59.729 144.51,59.9C146.693,60.311 148.377,62.088 148.67,64.29C148.955,66.114 148.856,67.977 148.38,69.76C147.387,73.817 145.455,77.586 142.74,80.76C140.08,83.747 137.227,86.556 134.2,89.17C133.32,89.97 132.43,90.79 131.62,91.67C130.462,92.9 129.839,94.541 129.89,96.23C129.95,106.14 129.97,116.06 129.89,125.98C129.805,138.406 121.114,149.231 109,152C106.899,152.493 104.748,152.738 102.59,152.73C97.07,152.73 91.59,152.8 86.04,152.73C72.887,152.679 61.603,142.993 59.56,130C59.3,128.259 59.19,126.5 59.23,124.74C59.23,115.62 59.07,106.5 59.23,97.39C59.356,94.722 58.249,92.139 56.23,90.39C53.712,88.058 51.195,85.725 48.68,83.39C45.477,80.364 42.989,76.66 41.4,72.55C40.508,70.407 40.072,68.101 40.12,65.78C40.24,61.66 42.21,59.68 46.42,59.64L65.12,59.64ZM83.87,71.51C83.435,71.161 82.868,71.019 82.32,71.12L64.1,71.12C61.16,71.12 60,72.47 60.48,75.36C60.845,77.831 61.983,80.125 63.73,81.91C65.07,83.27 66.41,84.65 67.84,85.91C69.748,87.54 70.782,89.975 70.63,92.48C70.51,97.99 70.63,103.48 70.63,109.02L70.63,125.09C70.627,125.211 70.626,125.332 70.626,125.454C70.626,133.945 77.51,140.978 86,141.16L87,141.16C92.43,140.96 97.86,141.16 103.3,141.09C109.533,140.974 115.113,137.1 117.4,131.3C118.96,127.39 118.46,123.3 118.4,119.5C95.87,111.06 83.87,95.45 83.87,71.51ZM112.47,106.61C115.279,106.61 117.59,104.299 117.59,101.49C117.59,98.681 115.279,96.37 112.47,96.37C109.661,96.37 107.35,98.681 107.35,101.49C107.35,104.299 109.661,106.61 112.47,106.61ZM118.29,59.61C118.29,57.02 118.39,54.61 118.29,52.1C118.19,50.16 116.82,49.1 114.72,48.97C112.3,48.83 110.61,49.79 110.4,51.79C110.13,54.39 110.13,57.01 110.4,59.61L118.29,59.61ZM80.88,59.61C81,59.38 81.13,59.25 81.13,59.11C81.13,57.21 81.22,55.3 81.22,53.4C81.226,52.757 81.153,52.115 81,51.49C80.51,49.67 78.93,48.74 76.72,48.92C74.72,49.08 73.34,50.22 73.26,52.14C73.15,54.59 73.26,57.04 73.26,59.59L80.88,59.61Z" style="fill:rgb(3,2,2);fill-rule:nonzero;"/>
    <path d="M83.87,71.51C83.87,95.45 95.87,111.06 118.35,119.51C118.35,123.35 118.88,127.4 117.35,131.31C115.063,137.11 109.483,140.984 103.25,141.1C97.81,141.18 92.38,140.97 86.95,141.17C78.357,141.529 70.986,134.763 70.61,126.17L70.61,109C70.61,103.49 70.53,98 70.61,92.46C70.762,89.955 69.728,87.52 67.82,85.89C66.39,84.61 65.05,83.23 63.71,81.89C61.963,80.105 60.825,77.811 60.46,75.34C59.98,72.45 61.14,71.11 64.08,71.1L82.29,71.1C82.851,70.992 83.432,71.143 83.87,71.51ZM85.87,101.57L85.871,101.461C85.871,98.658 83.564,96.351 80.761,96.351C77.958,96.351 75.651,98.658 75.651,101.461C75.651,104.219 77.883,106.505 80.64,106.57C83.38,106.688 85.732,104.53 85.85,101.79L85.85,101.57L85.87,101.57ZM112.47,106.61C109.661,106.61 107.35,104.299 107.35,101.49C107.35,98.681 109.661,96.37 112.47,96.37C115.279,96.37 117.59,98.681 117.59,101.49C117.59,104.299 115.279,106.61 112.47,106.61ZM118.29,59.58L110.39,59.58C110.12,56.98 110.12,54.36 110.39,51.76C110.6,49.76 112.29,48.76 114.71,48.94C116.81,49.06 118.18,50.13 118.28,52.07C118.39,54.53 118.29,57 118.29,59.58ZM80.88,59.59L73.23,59.59C73.23,57.04 73.15,54.59 73.23,52.14C73.31,50.22 74.65,49.08 76.69,48.92C78.9,48.74 80.48,49.67 80.97,51.49C81.123,52.108 81.196,52.743 81.19,53.38C81.19,55.28 81.19,57.19 81.1,59.09C81.13,59.23 81,59.36 80.88,59.59Z" style="fill:rgb(246,238,228);fill-rule:nonzero;"/>
    <path d="M85.85,101.57C85.807,104.343 83.514,106.6 80.741,106.6C77.937,106.6 75.631,104.293 75.631,101.49C75.631,98.687 77.937,96.38 80.741,96.38L80.77,96.38L80.851,96.379C83.564,96.379 85.807,98.587 85.85,101.3L85.85,101.57Z" style="fill:rgb(3,2,2);fill-rule:nonzero;"/>
</svg>
