<svg width="24" height="24" viewBox="0 0 24 24" fill="none" xmlns="http://www.w3.org/2000/svg">
<g filter="url(#filter0_b_153_8057)">
<ellipse cx="12.0001" cy="12.0001" rx="11.9999" ry="11.9999" transform="rotate(-180 12.0001 12.0001)" fill="url(#paint0_linear_153_8057)"/>
<ellipse cx="12.0001" cy="12.0001" rx="11.9999" ry="11.9999" transform="rotate(-180 12.0001 12.0001)" fill="black" fill-opacity="0.8"/>
<path d="M0.500144 12.0001C0.500145 5.64883 5.64884 0.50014 12.0001 0.50014C18.3513 0.500141 23.5 5.64883 23.5 12.0001C23.5 18.3513 18.3513 23.5 12.0001 23.5C5.64884 23.5 0.500144 18.3513 0.500144 12.0001Z" stroke="url(#paint1_linear_153_8057)" stroke-opacity="0.4"/>
</g>
<path d="M14.4462 8.03145C14.5026 7.92519 14.5926 7.84004 14.7026 7.78894C14.8539 7.71945 15.0069 7.71243 15.1477 7.81162C15.1953 7.84565 15.2333 7.89113 15.258 7.94369C15.3849 8.2174 15.5111 8.49161 15.6271 8.77092C15.8133 9.22207 16.0656 9.6414 16.2717 10.0834C16.5645 10.7121 16.8598 11.3393 17.1575 11.9652C17.328 12.3235 17.4895 12.6898 17.7037 13.0274C17.7623 13.1164 17.8265 13.2017 17.8958 13.2828C17.925 13.316 17.9614 13.3424 18.0022 13.3601C18.3147 13.5024 18.6513 13.5297 18.9869 13.5505C19.1581 13.5614 19.3261 13.5384 19.4962 13.5384C19.8219 13.5389 20.1476 13.5395 20.4716 13.5506C20.6862 13.5582 20.9007 13.5829 21.1143 13.6051C21.1969 13.6166 21.2785 13.6336 21.3587 13.6562C21.3921 13.6656 21.4244 13.6786 21.455 13.695C21.6291 13.7837 21.664 13.9324 21.544 14.0835C21.444 14.211 21.3147 14.3132 21.1666 14.3818C20.8511 14.5229 20.5221 14.6329 20.1844 14.7102C19.8514 14.7914 19.5209 14.8821 19.1928 14.982C18.6908 15.1396 18.1763 15.2558 17.6545 15.3293C17.3072 15.3739 16.9572 15.3957 16.6068 15.3946C16.2918 15.3958 15.9773 15.3721 15.6613 15.3608C15.1795 15.3431 14.699 15.3075 14.2178 15.2684C13.5132 15.2167 12.8055 15.2955 12.1313 15.5008C11.6761 15.6333 11.2191 15.761 10.7656 15.9049C10.5519 15.9727 10.3452 16.0706 10.1414 16.1587C9.8719 16.2741 9.60542 16.3989 9.33348 16.5107C8.67134 16.7858 7.98175 16.9599 7.25463 16.9624C6.87291 16.9714 6.49101 16.9476 6.11327 16.8912C5.88769 16.8524 5.65978 16.8348 5.43837 16.7579C4.72915 16.5077 4.25647 16.0387 4.08852 15.3054C4.04301 15.1146 4.04135 14.9163 4.08366 14.725C4.12597 14.5338 4.21118 14.3544 4.33304 14.2001C4.45247 14.0433 4.56765 13.8782 4.6963 13.7264C4.95321 13.4169 5.27288 13.1637 5.63496 12.9829C5.97186 12.8122 6.34017 12.7097 6.71828 12.6814C6.96005 12.6586 7.20361 12.6599 7.44528 12.6852C7.52761 12.6942 7.6086 12.7155 7.69043 12.729C7.72848 12.7331 7.76538 12.7372 7.81307 12.7424C7.82326 12.713 7.83099 12.6828 7.83617 12.6521C7.85475 12.3932 7.87105 12.134 7.88848 11.875C7.89595 11.8067 7.89938 11.7386 7.90225 11.6704C7.90804 11.5335 7.90923 11.3967 7.91781 11.2606C7.93718 10.9576 7.93385 10.6522 8.00104 10.3533C8.01049 10.3063 8.01571 10.2585 8.01665 10.2106C8.02659 9.97284 8.11171 9.75686 8.21349 9.54611C8.22352 9.52437 8.23541 9.50351 8.24904 9.48377C8.44384 9.22218 8.68098 8.994 8.95099 8.80831C9.47403 8.44664 10.0559 8.17537 10.6718 8.00606C11.1024 7.88649 11.543 7.8044 11.9885 7.76074C12.4 7.72475 12.8145 7.73856 13.2228 7.80188C13.3635 7.8235 13.5056 7.84302 13.6453 7.85265C13.8881 7.8685 14.1273 7.92005 14.3548 8.0056C14.3831 8.01548 14.41 8.02126 14.4462 8.03145ZM8.1347 12.8223C8.17928 12.8402 8.22293 12.8614 8.26914 12.875C8.60989 12.9779 8.95109 13.0804 9.29272 13.1823L9.34289 13.1912C9.30697 13.1636 9.26577 13.1435 9.2218 13.1321C8.96652 13.0549 8.71243 12.9773 8.45627 12.9028C8.35048 12.872 8.24206 12.8494 8.13521 12.823C8.11433 12.6882 8.12618 12.664 8.24998 12.6091C8.30382 12.5844 8.3583 12.5643 8.41163 12.539C9.23671 12.1801 10.102 11.9178 10.9897 11.7576C11.6644 11.6316 12.3464 11.5467 13.032 11.5034C13.6203 11.4619 14.2109 11.4581 14.8 11.492C15.2546 11.5128 15.7063 11.5749 16.1495 11.6776C16.3527 11.7233 16.5511 11.7877 16.7421 11.8699C16.8101 11.8986 16.8655 11.9503 16.8986 12.0155C16.9895 12.1924 17.0859 12.3671 17.1804 12.5428L17.6053 13.3325C17.6206 13.3608 17.6497 13.3889 17.615 13.4389C17.5405 13.416 17.4612 13.3949 17.3843 13.3678C16.9873 13.2313 16.5767 13.1371 16.1596 13.0865C15.7474 13.0312 15.3312 12.9959 14.9159 12.9691C14.5878 12.9485 14.2574 12.9536 13.9279 12.9509C13.7303 12.9445 13.5325 12.9484 13.3354 12.9625C12.9695 12.9983 12.6056 13.0524 12.2411 13.0963L10.4567 13.325C10.4369 13.3274 10.4175 13.3315 10.3982 13.3344L10.3959 13.3557C10.6623 13.3888 10.9253 13.4445 11.1821 13.5221C11.0205 13.5124 10.8601 13.4926 10.6991 13.4778C10.5381 13.463 10.3747 13.4553 10.2115 13.4391C10.0484 13.4229 9.90121 13.3712 9.7392 13.3919C9.77244 13.4163 9.80898 13.4359 9.84774 13.4502C10.1572 13.5724 10.4734 13.6772 10.7948 13.7639C11.2355 13.8738 11.673 13.9981 12.111 14.1168C12.2684 14.159 12.4242 14.2106 12.5844 14.2377C12.8439 14.282 13.1058 14.314 13.3676 14.3427C13.5538 14.3631 13.741 14.3745 13.9279 14.3887C14.0806 14.4004 14.232 14.4084 14.3842 14.4194C14.7586 14.448 15.133 14.4448 15.5076 14.4394C16.0941 14.4323 16.679 14.3803 17.257 14.2839C17.4545 14.2489 17.6487 14.196 17.8429 14.1437C18.0205 14.0963 18.1928 14.0342 18.3698 13.9862C18.6728 13.9062 18.9828 13.9401 19.292 13.9604C19.3713 13.9651 19.4501 13.9805 19.5292 13.992C19.6321 14.0072 19.7339 14.0274 19.8374 14.0376C20.0509 14.061 20.2654 14.0799 20.4801 14.0921C20.6806 14.1033 20.8806 14.1082 21.0831 14.106C21.1694 14.1004 21.2549 14.0854 21.3379 14.0615C21.3745 14.0513 21.4085 14.0334 21.4373 14.009C21.5218 13.9407 21.5167 13.8609 21.4189 13.8145C21.341 13.7771 21.2577 13.7516 21.1721 13.7388C20.8666 13.6929 20.5581 13.6705 20.2492 13.6717C20.1105 13.6735 19.9717 13.677 19.8332 13.6771C19.743 13.6769 19.6527 13.6721 19.5622 13.6696C19.7383 13.7149 19.9157 13.7473 20.0924 13.7814C20.2556 13.8128 20.4186 13.8459 20.5815 13.8796C20.6153 13.8891 20.6484 13.9008 20.6805 13.9148L20.6749 13.9351C20.6518 13.936 20.6285 13.9385 20.6057 13.9372C20.54 13.9339 20.4737 13.9301 20.4083 13.9241C20.1938 13.9046 19.9794 13.8896 19.7664 13.8617C19.5534 13.8339 19.3282 13.7917 19.109 13.7581C18.9067 13.7269 18.7029 13.704 18.5017 13.6684C18.2539 13.6218 18.0114 13.5507 17.778 13.4561C17.7255 13.4376 17.682 13.4003 17.6561 13.3517C17.4508 12.9703 17.2394 12.5923 17.0377 12.2085C16.8109 11.7772 16.5902 11.3421 16.3695 10.907C16.2031 10.5791 16.0355 10.2517 15.8788 9.91984C15.6558 9.44258 15.4385 8.96595 15.2228 8.48497C15.1518 8.32549 15.0646 8.17216 15.0463 7.99808C14.9064 7.94258 14.6967 7.99491 14.6111 8.10498C14.7186 8.17334 14.8684 8.15408 14.979 8.27148C14.9472 8.28752 14.913 8.29867 14.8777 8.30454C14.8189 8.3033 14.7604 8.29557 14.7033 8.28148C14.569 8.24811 14.4386 8.19591 14.3023 8.17024C14.0712 8.12456 13.8377 8.08994 13.6051 8.05203C13.365 8.01487 13.122 7.99983 12.8792 8.0071C12.6126 8.01189 12.3444 8.00518 12.0784 8.01624C11.2043 8.05982 10.391 8.31949 9.61375 8.70085C9.36067 8.8291 9.11908 8.97819 8.89156 9.14654C8.75387 9.24033 8.64317 9.36762 8.57014 9.51609C8.36423 9.95376 8.28555 10.4206 8.2564 10.8969C8.2414 11.1494 8.22628 11.4031 8.20862 11.6536C8.19097 11.9041 8.17078 12.1515 8.15047 12.4001C8.13933 12.5019 8.12812 12.6042 8.12095 12.7065C8.10545 12.7484 8.09859 12.7901 8.1347 12.8223ZM21.3201 14.145C21.2222 14.1784 21.1265 14.2183 21.0268 14.2425C20.9003 14.2779 20.7708 14.3016 20.6398 14.3134C20.3859 14.328 20.1353 14.2819 19.8843 14.2499C19.6332 14.2179 19.3962 14.1841 19.1523 14.1494C19.0316 14.135 18.9093 14.1393 18.7901 14.1624C18.508 14.2097 18.2458 14.3213 17.9729 14.3996C17.8104 14.4463 17.6496 14.5029 17.4846 14.5409C17.2623 14.5924 17.0353 14.6242 16.8125 14.6756C16.5335 14.7308 16.2493 14.7567 15.9646 14.7526C15.5405 14.7583 15.1194 14.7212 14.6968 14.6976C14.4615 14.6843 14.226 14.684 13.9901 14.6769C13.7263 14.6661 13.4626 14.661 13.2007 14.6335C12.9702 14.6083 12.7421 14.5612 12.5135 14.5181C12.2544 14.4697 11.9995 14.4015 11.751 14.3141C11.3256 14.1639 10.9006 14.0149 10.4716 13.8763C9.92413 13.699 9.37456 13.5283 8.82293 13.3641C8.3979 13.2366 7.97113 13.1146 7.54086 13.0036C7.37956 12.9621 7.21342 12.9422 7.04688 12.9444C6.65323 12.9533 6.26625 13.0444 5.91155 13.2118C5.70135 13.3093 5.49742 13.4193 5.30092 13.5412C5.14779 13.6351 5.00402 13.7429 4.8715 13.8633C4.56919 14.1441 4.36059 14.5089 4.27319 14.9096C4.20265 15.192 4.24595 15.4907 4.39398 15.743C4.51868 15.9493 4.67808 16.1333 4.86534 16.2871C4.8777 16.2968 4.89075 16.3056 4.9044 16.3134C4.87047 16.2497 4.82964 16.1898 4.78261 16.1348C4.64031 15.9656 4.52802 15.774 4.45048 15.5681C4.34879 15.2688 4.35205 14.9765 4.51377 14.6959C4.62597 14.5109 4.77934 14.3535 4.96234 14.2355C5.29319 14.0108 5.66674 13.8841 6.05334 13.7957C6.56987 13.6749 7.09832 13.6096 7.62948 13.6008C7.85442 13.5983 8.07963 13.6037 8.3051 13.6069C8.43703 13.6089 8.56946 13.6064 8.70017 13.6195C8.92478 13.6351 9.14816 13.6651 9.36893 13.7092C9.6109 13.7662 9.84504 13.8581 10.0811 13.9377C10.5677 14.1013 11.0544 14.2633 11.5386 14.4329C11.9337 14.5736 12.3404 14.6802 12.754 14.7516C13.2686 14.8298 13.788 14.8729 14.3085 14.8804C14.6378 14.8904 14.9671 14.905 15.2961 14.9127C15.5316 14.9186 15.7686 14.9316 16.0031 14.9153C16.5641 14.8771 17.1211 14.8113 17.6623 14.6498C17.8714 14.5872 18.0821 14.531 18.2906 14.4683C18.3964 14.4363 18.4986 14.3898 18.6051 14.3612C18.9534 14.2663 19.3065 14.305 19.6587 14.3424C19.7756 14.3552 19.8911 14.382 20.0081 14.3937C20.1252 14.4054 20.2437 14.4042 20.3608 14.4159C20.5024 14.4291 20.6449 14.4272 20.786 14.4103C20.997 14.3887 21.1621 14.2817 21.3187 14.1528L21.3201 14.145Z" fill="#FF890E"/>
<path d="M10.5206 9.1556C10.4961 9.13708 10.4554 9.1213 10.4477 9.09669C10.4401 9.07207 10.4625 9.03491 10.4814 9.0098C10.5006 8.99014 10.5236 8.97439 10.5491 8.96343C10.7905 8.82181 11.0512 8.71465 11.3234 8.64515C11.4873 8.60649 11.6547 8.5682 11.8202 8.53651C11.8542 8.53071 11.889 8.53031 11.9232 8.53532C11.9311 8.53744 11.9385 8.54141 11.9446 8.5469C11.9507 8.5524 11.9554 8.55926 11.9582 8.5669C11.9581 8.57645 11.9558 8.58585 11.9515 8.59439C11.9472 8.60294 11.9409 8.61041 11.9333 8.61624C11.8949 8.63303 11.855 8.6461 11.8141 8.65528C11.6436 8.70114 11.473 8.74662 11.3022 8.7917C11.1874 8.82182 11.0829 8.88149 10.9994 8.96461C10.9226 9.03886 10.8259 9.0901 10.7206 9.11241C10.6585 9.12882 10.5946 9.1405 10.5206 9.1556Z" fill="#FF890E"/>
<path d="M15.8015 10.2218C15.7291 10.2203 15.6597 10.1926 15.6066 10.1439C15.5338 10.0913 15.4655 10.0331 15.4021 9.9698C15.1826 9.74619 14.9915 9.49717 14.8329 9.22822C14.814 9.1996 14.7994 9.16845 14.7896 9.13574C14.787 9.12472 14.7871 9.11328 14.7897 9.10229C14.7923 9.0913 14.7974 9.08104 14.8046 9.07228C14.814 9.06578 14.825 9.06165 14.8364 9.06024C14.8479 9.05884 14.8595 9.06019 14.8704 9.0642C14.8982 9.07744 14.9224 9.09697 14.9411 9.12119C15.0086 9.20783 15.0704 9.30006 15.1421 9.38434C15.2987 9.57129 15.4601 9.75538 15.6178 9.9419C15.6727 10.0073 15.7243 10.0758 15.7753 10.1454C15.7868 10.1699 15.7955 10.1955 15.8015 10.2218Z" fill="#FF890E"/>
<path d="M7.2443 13.037C7.27728 13.0377 7.31015 13.0413 7.34252 13.0477C7.75134 13.1623 8.16008 13.2776 8.56874 13.3936C8.58776 13.399 8.60507 13.409 8.61898 13.4229C8.13696 13.3803 7.68811 13.2186 7.23334 13.0793L7.2443 13.037Z" fill="#FF890E"/>
<defs>
<filter id="filter0_b_153_8057" x="-60" y="-60" width="144" height="144" filterUnits="userSpaceOnUse" color-interpolation-filters="sRGB">
<feFlood flood-opacity="0" result="BackgroundImageFix"/>
<feGaussianBlur in="BackgroundImage" stdDeviation="30"/>
<feComposite in2="SourceAlpha" operator="in" result="effect1_backgroundBlur_153_8057"/>
<feBlend mode="normal" in="SourceGraphic" in2="effect1_backgroundBlur_153_8057" result="shape"/>
</filter>
<linearGradient id="paint0_linear_153_8057" x1="6.14504" y1="14.5715" x2="17.7392" y2="14.5715" gradientUnits="userSpaceOnUse">
<stop stop-color="#FF890E"/>
<stop offset="1" stop-color="#824A1D"/>
</linearGradient>
<linearGradient id="paint1_linear_153_8057" x1="21.3334" y1="5.40011" x2="6.29005" y2="5.20404" gradientUnits="userSpaceOnUse">
<stop stop-color="#FF8320"/>
<stop offset="1" stop-color="#FFCFA9"/>
</linearGradient>
</defs>
</svg>
