<?xml version="1.0" encoding="UTF-8" standalone="no"?>
<svg width="65" height="67" fill="none" xmlns="http://www.w3.org/2000/svg"><mask id="aa" fill="#fff"><path fill-rule="evenodd" clip-rule="evenodd" d="M21.536 3.738A32.443 32.443 0 0132.5 1.842c17.95 0 32.5 14.55 32.5 32.5s-14.55 32.5-32.5 32.5S0 52.292 0 34.342c0-6.53 1.926-12.61 5.24-17.704a10.349 10.349 0 01-2.082-6.243C3.158 4.654 7.812 0 13.553 0c3.208 0 6.077 1.453 7.983 3.738z"></path></mask><path fill-rule="evenodd" clip-rule="evenodd" d="M21.536 3.738A32.443 32.443 0 0132.5 1.842c17.95 0 32.5 14.55 32.5 32.5s-14.55 32.5-32.5 32.5S0 52.292 0 34.342c0-6.53 1.926-12.61 5.24-17.704a10.349 10.349 0 01-2.082-6.243C3.158 4.654 7.812 0 13.553 0c3.208 0 6.077 1.453 7.983 3.738z" fill="#002EFF"></path><path d="M21.536 3.738l-8.444 7.049 4.923 5.897 7.232-2.59-3.71-10.356zm-16.295 12.9l9.22 6 4.202-6.457-4.632-6.156-8.79 6.613zm20.006-2.545a21.444 21.444 0 017.253-1.25v-22c-5.13 0-10.075.892-14.674 2.54l7.42 20.71zm7.253-1.25c11.874 0 21.5 9.625 21.5 21.5h22c0-24.025-19.476-43.5-43.5-43.5v22zm21.5 21.5c0 11.873-9.626 21.5-21.5 21.5v22c24.024 0 43.5-19.477 43.5-43.5H54zm-21.5 21.5c-11.874 0-21.5-9.627-21.5-21.5h-22c0 24.023 19.476 43.5 43.5 43.5v-22zM11 34.342c0-4.337 1.272-8.343 3.46-11.705l-18.439-12A43.348 43.348 0 00-11 34.342h22zm3.031-24.318a.633.633 0 01.127.37h-22c0 4.81 1.6 9.277 4.293 12.856l17.58-13.226zm.127.37a.605.605 0 01-.605.605v-22C1.737-11-7.842-1.421-7.842 10.395h22zm-.605.605a.65.65 0 01-.267-.065.568.568 0 01-.194-.148l16.89-14.098A21.373 21.373 0 0013.551-11v22z" fill="#002EFF" mask="url(#aa)"></path><path fill-rule="evenodd" clip-rule="evenodd" d="M18.139 26.957l7.995-12.47-11.92 11.92c-.991.992-.524 2.687.835 3.03l6.318 1.6c-.564.887-1.203 2.005-1.7 3.19-.454 1.086-.833 2.33-.871 3.56-.038 1.261.285 2.612 1.351 3.678 1.602 1.602 2.765 2.16 3.694 2.607l.204.098c.432.21.751.382 1.09.653.342.274.757.691 1.29 1.425.095.129.194.267.299.412l.002.004.001.001c1.163 1.614 2.989 4.147 5.344 5.828 1.315.939 2.875 1.676 4.658 1.82 1.807.146 3.694-.329 5.614-1.565 1.84-1.185 3.052-2.505 3.622-4.042.575-1.548.405-3.065-.013-4.441-.383-1.26-1.021-2.545-1.617-3.745l-.112-.226c-.652-1.314-1.267-2.584-1.676-3.914-.799-2.597-.257-3.721.084-4.167a1.88 1.88 0 01.807-.606.511.511 0 01.021-.008l.038-.008.064-.021.283-.093.745-.245c.617-.204 1.442-.476 2.27-.752a260.04 260.04 0 002.301-.777c.318-.11.594-.206.799-.281.1-.037.196-.073.275-.105a2.829 2.829 0 00.267-.126l.003-.001c.024-.014.188-.104.348-.265.643-.642.437-1.429.416-1.51l-.001-.004a1.617 1.617 0 00-.29-.595 3.654 3.654 0 00-.165-.202 17.37 17.37 0 00-.406-.445c-.195-.208-3.985-4.047-7.169-7.273-2.205-2.233-4.119-4.172-4.348-4.408.027.028 2.066 3.236 4.084 6.412 1.978 3.111 3.936 6.192 3.962 6.219l-1.076.36a715.46 715.46 0 01-3.002.992l-.239.079-.034.01a4.66 4.66 0 00-.83.344 5.042 5.042 0 00-1.636 1.388c-1.128 1.475-1.603 3.74-.594 7.018.494 1.607 1.22 3.09 1.865 4.39l.063.126c.64 1.292 1.17 2.358 1.473 3.358.303.996.323 1.753.075 2.422-.252.68-.876 1.52-2.37 2.482-1.411.91-2.616 1.155-3.646 1.072-1.053-.085-2.075-.527-3.075-1.241-1.907-1.361-3.437-3.476-4.643-5.142l-.282-.39c-.658-.904-1.262-1.546-1.874-2.035-.616-.492-1.185-.785-1.684-1.027l-.214-.104c-.819-.392-1.605-.77-2.828-1.992-.282-.282-.446-.688-.426-1.345.02-.687.246-1.524.627-2.434.76-1.814 1.966-3.518 2.448-4.161.786-1.05.226-2.53-1.008-2.842l-5.886-1.49zm13.334 12.932s-2.438 0-4.063-1.495c-1.625-1.496 0-4.486 0-4.486s.474.299 2.269 2.392c1.794 2.094 1.794 3.589 1.794 3.589z" fill="#fff"></path><circle cx="13.553" cy="10.395" r="8.026" fill="url(#paint0_radial_rdpx)"></circle><path d="M10.556 14.21h1.806v-2.79h.938l1.563 2.79h2.12l-1.888-3.01c1.042-.394 1.644-1.274 1.644-2.397 0-1.575-1.123-2.698-2.952-2.698h-3.23v8.105zm3.08-6.437c.741 0 1.216.416 1.216 1.03 0 .614-.475 1.03-1.216 1.03h-1.274v-2.06h1.274z" fill="#fff"></path><defs><radialGradient id="paint0_radial_rdpx" cx="0" cy="0" r="1" gradientUnits="userSpaceOnUse" gradientTransform="matrix(10 12.5 -12.5 10 8.816 4.079)"><stop stop-color="#22E1FF"></stop><stop offset="1" stop-color="#22E1FF" stop-opacity="0"></stop></radialGradient></defs></svg>