<?xml version="1.0" encoding="UTF-8" standalone="no"?>
<svg class="MuiSvgIcon-root MuiSvgIcon-fontSizeLarge css-17nxzy2" focusable="false" aria-hidden="true" viewBox="0 0 32 32" style="z-index: 1; font-size: 21px;"><defs><linearGradient id="paint0_linear" x1="-83.5339" y1="50" x2="189.059" y2="50" gradientUnits="userSpaceOnUse" gradientTransform="matrix(0.319996, 0, 0, 0.319996, -0.000007, -1.775952)"><stop stop-color="#708B96"></stop><stop offset="1" stop-color="#F7FBE7"></stop></linearGradient></defs><path fill-rule="evenodd" clip-rule="evenodd" d="M 15.982 28.228 C 23.688 28.228 29.934 21.982 29.934 14.276 C 29.934 12.658 29.658 11.104 29.152 9.659 L 29.152 5.11 C 30.947 7.696 32 10.837 32 14.224 C 32 23.06 24.836 30.224 16 30.224 C 7.163 30.224 0 23.06 0 14.224 C 0 10.817 1.065 7.659 2.88 5.064 L 2.88 9.472 C 2.331 10.97 2.031 12.588 2.031 14.276 C 2.031 21.982 8.276 28.228 15.982 28.228 Z" fill="url(#paint0_linear)"></path><path d="M 3.552 14.224 C 3.552 7.349 9.125 1.776 16 1.776 C 22.875 1.776 28.448 7.349 28.448 14.224 C 28.448 21.099 22.875 26.671 16 26.671 C 9.125 26.671 3.552 21.099 3.552 14.224 Z" fill="#708B96"></path><path fill-rule="evenodd" clip-rule="evenodd" d="M 17.195 19.176 C 17.195 19.176 17.195 19.176 17.195 19.176 L 17.195 19.726 L 21.477 19.726 L 21.477 18.181 L 19.363 18.181 C 20.634 17.219 21.451 15.72 21.451 14.037 C 21.451 11.129 19.011 8.772 16 8.772 C 12.989 8.772 10.548 11.129 10.548 14.037 C 10.548 15.72 11.365 17.219 12.637 18.181 L 10.523 18.181 L 10.523 19.726 L 14.805 19.726 L 14.805 19.176 L 14.805 17.652 C 13.245 17.16 12.116 15.733 12.116 14.05 C 12.116 11.96 13.855 10.266 16 10.266 C 18.145 10.266 19.884 11.96 19.884 14.05 C 19.884 15.733 18.755 17.16 17.195 17.652 L 17.195 19.176 Z" fill="white"></path></svg>