<?xml version="1.0" encoding="UTF-8" standalone="no"?>
<svg viewBox="0 0 120 120" fill="none" xmlns="http://www.w3.org/2000/svg" class="jss1907"><path d="M0 60C0 26.863 26.863 0 60 0s60 26.863 60 60-26.863 60-60 60S0 93.137 0 60Z" fill="#000"></path><path d="M0 60C0 26.863 26.863 0 60 0s60 26.863 60 60-26.863 60-60 60S0 93.137 0 60Z" fill="#000"></path><path d="m68.894 15.874 2.596 6.081a50.353 50.353 0 0 0 26.548 26.547l6.081 2.596c1.591.679 2.883 1.652 3.881 2.811-3.029-21.714-20.203-38.89-41.917-41.916 1.157.995 2.133 2.29 2.811 3.88ZM15.876 51.098l6.081-2.596a50.366 50.366 0 0 0 26.55-26.547l2.593-6.081c.681-1.592 1.655-2.886 2.812-3.881-21.715 3.026-38.889 20.202-41.917 41.916.997-1.159 2.29-2.132 3.88-2.81ZM104.119 68.9l-6.081 2.596A50.356 50.356 0 0 0 71.49 98.045l-2.597 6.079a10.54 10.54 0 0 1-2.811 3.883c21.714-3.028 38.888-20.205 41.917-41.92-.998 1.16-2.29 2.134-3.881 2.812ZM51.1 104.124l-2.593-6.08a50.37 50.37 0 0 0-26.55-26.548l-6.081-2.597c-1.592-.678-2.884-1.652-3.881-2.811 3.028 21.714 20.202 38.891 41.917 41.919-1.157-.997-2.13-2.292-2.812-3.883Z" fill="#A6A6A6"></path><path d="m38.557 55.376 2.905-1.24a24.06 24.06 0 0 0 12.681-12.68l1.239-2.905c1.737-4.069 7.505-4.069 9.242 0l1.238 2.905a24.061 24.061 0 0 0 12.681 12.68l2.906 1.24c4.068 1.737 4.068 7.503 0 9.24l-2.906 1.24a24.056 24.056 0 0 0-12.68 12.681l-1.24 2.903c-1.736 4.069-7.504 4.069-9.241 0l-1.239-2.903a24.054 24.054 0 0 0-12.68-12.68l-2.906-1.241c-4.069-1.737-4.069-7.503 0-9.24Z" fill="#fff"></path></svg>