<svg width="50" height="50" viewBox="0 0 50 50" fill="none" xmlns="http://www.w3.org/2000/svg">
<path d="M25 0C11.1927 0 0 11.1927 0 25C0 38.8073 11.1927 50 25 50C38.806 50 50 38.8073 50 25C50 11.1927 38.806 0 25 0Z" fill="#F8F9F0"/>
<path d="M25 5C13.9545 5 5 13.9545 5 25C5 36.0455 13.9545 45 25 45C36.0455 45 45 36.0455 45 25C45 13.9545 36.0455 5 25 5Z" fill="#011023"/>
<path d="M20.6413 32.916C21.4448 33.7719 22.4419 34.3176 23.6341 34.5492V26.4161C23.5032 26.3651 23.3292 26.3075 23.1093 26.2407C22.8882 26.1753 22.6487 26.1177 22.3909 26.0667C21.4317 25.8076 20.4856 25.5001 19.5538 25.1506C18.6208 24.8012 17.7845 24.3328 17.0465 23.7491C16.3071 23.1655 15.7182 22.4392 15.2798 21.5702C14.8388 20.7013 14.619 19.6178 14.619 18.3196C14.619 16.9953 14.8715 15.828 15.3767 14.819C15.8818 13.8075 16.5479 12.9569 17.3776 12.2698C18.2046 11.5815 19.1638 11.0489 20.2526 10.6746C21.3401 10.2977 22.4681 10.0727 23.6341 9.99283V7H25.9255V9.99675C27.0915 10.1263 28.1868 10.3802 29.2102 10.7544C30.2335 11.1313 31.1352 11.6509 31.9112 12.3117C32.6872 12.9739 33.3219 13.7983 33.8152 14.7837C34.3073 15.7704 34.5925 16.9377 34.6698 18.2856H29.1526C29.1251 17.2479 28.8032 16.3658 28.1803 15.6382C27.5587 14.912 26.8075 14.5468 25.9281 14.5468V21.4341C26.2396 21.5127 26.5563 21.5899 26.8808 21.6684C27.2053 21.7456 27.5482 21.8372 27.9107 21.9406C29.8291 22.4588 31.304 23.1026 32.3404 23.8669C33.3755 24.6311 34.1411 25.432 34.6318 26.2604C35.1238 27.0887 35.4157 27.9197 35.5073 28.752C35.5976 29.583 35.6421 30.3197 35.6421 30.9688C35.6421 31.5407 35.5007 32.2578 35.2155 33.128C34.9302 33.9983 34.4185 34.845 33.6804 35.6759C32.9411 36.5069 31.9517 37.2476 30.7072 37.8954C29.464 38.5444 27.8701 38.9318 25.9281 39.0627V42.3696H23.6367V39.0627C20.7355 38.8559 18.4677 37.9608 16.8371 36.3787C15.2039 34.7965 14.2578 32.475 14 29.4128H19.4805C19.4517 30.8929 19.8404 32.0576 20.6413 32.916ZM22.353 14.7431C21.9381 14.8727 21.5626 15.0755 21.2262 15.3451C20.8912 15.6186 20.6256 15.9549 20.4306 16.3567C20.2369 16.7597 20.1388 17.2321 20.1388 17.7752C20.1388 18.6337 20.4097 19.2932 20.9553 19.7604C21.4984 20.2263 22.3922 20.6032 23.6367 20.8885V14.5468C23.1931 14.5468 22.7665 14.6123 22.353 14.7431ZM27.3859 34.2194C27.8911 34.0493 28.3452 33.8098 28.7456 33.4997C29.146 33.1895 29.4771 32.8048 29.7349 32.3494C29.9927 31.8979 30.1249 31.3588 30.1249 30.7346C30.1249 29.723 29.8069 28.9653 29.1722 28.4589C28.5375 27.9537 27.4566 27.4931 25.9281 27.0783V34.5492C26.3927 34.4982 26.8808 34.3882 27.3859 34.2194Z" fill="#F8F9F0"/>
<path d="M25.9301 9.70142V9.88593L26.1159 9.70142H25.9301Z" fill="#011023"/>
<path d="M26.5765 9.70142L25.9301 10.3466V10.7261L26.956 9.70142H26.5765Z" fill="#011023"/>
<path d="M27.4271 9.70142L25.9301 11.1972V11.5767L27.8066 9.70142H27.4271Z" fill="#011023"/>
<path d="M28.2777 9.70142L25.9301 12.0478V12.4273L28.6572 9.70142H28.2777Z" fill="#011023"/>
<path d="M29.1283 9.70142L25.9301 12.8984V13.2792L29.5078 9.70142H29.1283Z" fill="#011023"/>
<path d="M29.9789 9.70142L25.9301 13.749V14.1298L30.3584 9.70142H29.9789Z" fill="#011023"/>
<path d="M30.8296 9.70142L25.9301 14.6009V14.9804L31.2104 9.70142H30.8296Z" fill="#011023"/>
<path d="M31.6802 9.70142L25.9301 15.4515V15.831L32.061 9.70142H31.6802Z" fill="#011023"/>
<path d="M32.5321 9.70142L25.9301 16.3021V16.6816L32.9116 9.70142H32.5321Z" fill="#011023"/>
<path d="M33.3827 9.70142L25.9301 17.1527V17.5322L33.7622 9.70142H33.3827Z" fill="#011023"/>
<path d="M34.2333 9.70142L25.9301 18.0033V18.3828L34.6128 9.70142H34.2333Z" fill="#011023"/>
<path d="M35.0839 9.70142L25.9301 18.8539V19.2335L35.4634 9.70142H35.0839Z" fill="#011023"/>
<path d="M35.9345 9.70142L25.9301 19.7046V20.0841L36.314 9.70142H35.9345Z" fill="#011023"/>
<path d="M36.9853 9.70142H36.7851L25.9301 20.5552V20.7567H26.1093L36.9853 9.8807V9.70142Z" fill="#011023"/>
<path d="M36.9853 10.3503L26.5804 20.7565H26.9599L36.9853 10.7312V10.3503Z" fill="#011023"/>
<path d="M36.9853 11.2024L27.431 20.7567H27.8118L36.9853 11.5819V11.2024Z" fill="#011023"/>
<path d="M36.9853 12.053L28.2816 20.7567H28.6624L36.9853 12.4325V12.053Z" fill="#011023"/>
<path d="M36.9853 12.9036L29.1335 20.7566H29.513L36.9853 13.2831V12.9036Z" fill="#011023"/>
<path d="M36.9853 13.7542L29.9841 20.7566H30.3636L36.9853 14.1337V13.7542Z" fill="#011023"/>
<path d="M36.9854 14.6047L30.8348 20.7566H31.2143L36.9854 14.9842V14.6047Z" fill="#011023"/>
<path d="M36.9854 15.4556L31.6854 20.7568H32.0649L36.9854 15.8351V15.4556Z" fill="#011023"/>
<path d="M36.9853 17.1565L33.3866 20.7565H33.7661L36.9853 17.5373V17.1565Z" fill="#011023"/>
<path d="M36.9853 18.0073L34.2372 20.7567H34.6167L36.9853 18.3881V18.0073Z" fill="#011023"/>
<path d="M36.9853 18.8591L35.0878 20.7566H35.4686L36.9853 19.2386V18.8591Z" fill="#011023"/>
<path d="M36.9854 19.7097L35.9385 20.7566H36.3193L36.9854 20.0892V19.7097Z" fill="#011023"/>
</svg>
