<svg width="24" height="24" viewBox="0 0 24 24" fill="none" xmlns="http://www.w3.org/2000/svg">
<path d="M12 0C5.37287 0 0 5.37287 0 12C0 18.6277 5.37287 24 12 24C18.6277 24 24 18.6277 24 12C24 5.37287 18.6277 0 12 0Z" fill="#F7F8EF"/>
<path d="M12 2.40015C6.69843 2.40015 2.40002 6.69855 2.40002 12.0001C2.40002 17.3023 6.69843 21.6001 12 21.6001C17.3022 21.6001 21.6 17.3023 21.6 12.0001C21.6 6.69855 17.3022 2.40015 12 2.40015Z" fill="#021123"/>
<path d="M10.2776 13.9123L10.2085 13.8778L14.0276 6.23999H14.1138L10.2776 13.9123Z" fill="#F7F8EF"/>
<path d="M11.367 13.9102L11.2983 13.8756L15.1159 6.23999H15.2021L11.367 13.9102Z" fill="#F7F8EF"/>
<path d="M10.6409 13.9118L10.5718 13.8772L14.3904 6.23999H14.4766L10.6409 13.9118Z" fill="#F7F8EF"/>
<path d="M11.0042 13.9107L10.9351 13.8762L14.7531 6.23999H14.8393L11.0042 13.9107Z" fill="#F7F8EF"/>
<path d="M9.91485 13.9134L9.8457 13.8788L13.6649 6.23999H13.7516L9.91485 13.9134Z" fill="#F7F8EF"/>
<path d="M19.468 6.23999H19.5547L15.7244 13.9001L15.6558 13.8655L19.468 6.23999Z" fill="#F7F8EF"/>
<path d="M8.46222 13.9166L8.39307 13.882L12.2138 6.23999H12.3005L8.46222 13.9166Z" fill="#F7F8EF"/>
<path d="M9.18825 13.915L9.11963 13.8804L12.9393 6.23999H13.026L9.18825 13.915Z" fill="#F7F8EF"/>
<path d="M8.8255 13.9155L8.75635 13.8815L12.5766 6.23999H12.6633L8.8255 13.9155Z" fill="#F7F8EF"/>
<path d="M9.55157 13.9139L9.48242 13.8799L13.3021 6.23999H13.3888L9.55157 13.9139Z" fill="#F7F8EF"/>
<path d="M13.5457 13.9049L13.4771 13.8703L17.2919 6.23999H17.3781L13.5457 13.9049Z" fill="#F7F8EF"/>
<path d="M13.909 13.9044L13.8398 13.8698L17.6547 6.23999H17.7409L13.909 13.9044Z" fill="#F7F8EF"/>
<path d="M14.2723 13.9033L14.2031 13.8687L18.0175 6.23999H18.1037L14.2723 13.9033Z" fill="#F7F8EF"/>
<path d="M11.7303 13.9091L11.6611 13.8746L15.4787 6.23999H15.5649L11.7303 13.9091Z" fill="#F7F8EF"/>
<path d="M15.3616 13.9012L15.2925 13.8666L19.1058 6.23999H19.192L15.3616 13.9012Z" fill="#F7F8EF"/>
<path d="M14.9983 13.9017L14.9292 13.8671L18.743 6.23999H18.8292L14.9983 13.9017Z" fill="#F7F8EF"/>
<path d="M14.6351 13.9028L14.5659 13.8682L18.3803 6.23999H18.4665L14.6351 13.9028Z" fill="#F7F8EF"/>
<path d="M12.4563 13.9075L12.3877 13.873L16.2037 6.23999H16.2904L12.4563 13.9075Z" fill="#F7F8EF"/>
<path d="M12.0936 13.9086L12.0244 13.874L15.8409 6.23999H15.9276L12.0936 13.9086Z" fill="#F7F8EF"/>
<path d="M13.1829 13.9059L13.1138 13.8714L16.9292 6.23999H17.0154L13.1829 13.9059Z" fill="#F7F8EF"/>
<path d="M12.8196 13.9065L12.7505 13.8724L16.5664 6.23999H16.6531L12.8196 13.9065Z" fill="#F7F8EF"/>
<path d="M11.9801 21.5602L4.31995 6.23999H11.9801L15.8098 13.9001L11.9801 21.5602Z" fill="#F7F8EF"/>
</svg>
