<svg xmlns="http://www.w3.org/2000/svg" viewBox="0 0 134 147.87"><defs><style>.e0bdf0bf-31f1-4ac5-bea5-e5f974eef8cd{fill:#1d86cc;}.a3b9dbac-d710-4c09-a9fa-5844995679a6{fill:#fff;}.e56a36db-ae2f-491a-a97e-0b498a8aee37{fill:#2d374b;}.bee86ec2-2e51-463a-858d-9b5f1b8c4440{fill:#96bedc;}.a9378c2d-880a-4eea-8172-ba13f438d2db{fill:#28a0f0;}</style></defs><g id="a98afd30-9947-4c63-805b-753e44812882" data-name="Layer 2"><g id="eb93e617-70d4-4de3-ad95-b8e3e55457b9" data-name="arbitrum_plain"><g id="aea153c6-563c-4d94-918a-d17bb20e0be3" data-name="arbirtum logo"><g id="f79f936c-6c84-4e3e-80c1-e097d3f1001d" data-name="Group 1"><path id="b783c0c0-74ce-49fa-a3e6-2b51d5fc5044" data-name="Polygon 1" class="e0bdf0bf-31f1-4ac5-bea5-e5f974eef8cd" d="M134,100.86a20,20,0,0,1-10,17.34l-47,27a20,20,0,0,1-19.93,0l-47-27A20,20,0,0,1,0,100.86V47A20,20,0,0,1,10,29.67l47-27A20,20,0,0,1,77,2.66l47,27A20,20,0,0,1,134,47Z"/></g><g id="a32ef65c-d00c-443b-ba0a-8060f37fc5e6" data-name="arbitrum"><path id="ada21c94-173d-47c2-b484-c662033afa06" data-name="Path 83" class="a3b9dbac-d710-4c09-a9fa-5844995679a6" d="M61.21,10.18,14.81,37A11.6,11.6,0,0,0,9,47l0,53.66a11.59,11.59,0,0,0,5.79,10l46.45,26.86a11.61,11.61,0,0,0,11.6,0l46.4-26.8a11.57,11.57,0,0,0,5.8-10l0-53.65a11.63,11.63,0,0,0-5.8-10L72.81,10.19a11.56,11.56,0,0,0-11.6,0Z"/><path id="af39528d-100a-441c-a0ab-e39b79112129" data-name="Path 84" class="e56a36db-ae2f-491a-a97e-0b498a8aee37" d="M45.89,119.44a2.11,2.11,0,0,1,.46-1Q67.17,83.17,88,47.84c.19-.33.37-.67.53-1-.12-.21-.26-.17-.38-.17-5.93,0-11.86.06-17.8,0a1.25,1.25,0,0,0-1.18.79q-6.7,11.1-13.44,22.2l-28.51,47-.25.42c-.17.33-.36.38-.7.18-1.47-.87-3-1.72-4.53-2.62L64,46.92c-.09-.27-.28-.21-.42-.21-2.27-.07-4.54-.17-6.8-.19A25.24,25.24,0,0,0,47.47,48a13.17,13.17,0,0,0-6.58,5.35q-11.6,18.08-23.28,36.1l-.37.57c-.45,0-.38-.37-.43-.63a7.47,7.47,0,0,1,0-1.16c0-13.29,0-26.59,0-39.88A5.71,5.71,0,0,1,20,42.85C30.25,37,40.4,31.07,50.59,25.19c4.55-2.63,9.11-5.23,13.62-7.91a5.15,5.15,0,0,1,5.75,0c8.3,4.87,16.67,9.63,25,14.43l18.89,10.85c.45.26.89.53,1.34.78a4.35,4.35,0,0,1,2.31,4.1q0,21.69,0,43.38a2.67,2.67,0,0,1-.11,1.05c-.5.49-.68-.06-.86-.31-.75-1.06-1.43-2.17-2.12-3.26q-8.37-13.11-16.8-26.17c-1.89-3-3.8-5.88-5.67-8.84-.44-.69-.52-.7-1,0q-4.23,7.16-8.45,14.31a1.45,1.45,0,0,0,.17,1.7q3.48,5.63,7,11.25l11.86,19.18q2.4,3.89,4.81,7.77a2,2,0,0,1,.47,1.24c-.32.64-1,.82-1.55,1.11a11.58,11.58,0,0,1-3,1.55c-.57-.14-.78-.66-1-1.08-3.67-5.73-7.29-11.48-10.94-17.22C86.54,87.24,82.8,81.31,79,75.42c-.49-.75-.56-.76-1,0-3.27,5.51-6.51,11-9.79,16.56a1.47,1.47,0,0,0,.08,1.71c4.43,6.82,8.75,13.7,13.13,20.56,1.22,1.91,2.45,3.81,3.65,5.74.23.37.55.74.34,1.25a21.37,21.37,0,0,1-3.7,2.3l-12.28,7.13a4.07,4.07,0,0,1-4.4,0q-9-5.23-18.12-10.42A2.5,2.5,0,0,1,45.89,119.44Z"/><path id="ba9e46b5-07b9-425c-bb71-4c88639bdf49" data-name="Path 85" class="bee86ec2-2e51-463a-858d-9b5f1b8c4440" d="M117.22,92c0-.36,0-.71,0-1.07q0-21.65,0-43.28a4.49,4.49,0,0,0-2.46-4.27q-22.71-13-45.41-26.11a4.22,4.22,0,0,0-4.58,0q-12.6,7.34-25.23,14.61L19.31,43.62a4.22,4.22,0,0,0-2.27,4q.06,20.76.06,41.53c0,.3-.12.65.14.92-1.6,2.66-3.35,5.22-5,7.83l-2.54,3.91c-.14.21-.29.4-.56.77,0-.44,0-.68,0-.92q0-27.37,0-54.76a11,11,0,0,1,5.76-9.94c5.87-3.49,11.83-6.84,17.74-10.27,5-2.89,10-5.8,15-8.69,4.65-2.7,9.25-5.48,14-8a11.59,11.59,0,0,1,11.78.31c3.8,2.15,7.58,4.35,11.37,6.53l10.69,6.16,9.86,5.66L115,34.21c1.43.83,2.87,1.65,4.29,2.49a12,12,0,0,1,5.95,8.56,8.08,8.08,0,0,1,.06,1.55q0,27,0,53.89a11.57,11.57,0,0,1-4.16,9,13.79,13.79,0,0,1-2.4,1.47q-7.31,4.26-14.63,8.49-7.77,4.5-15.56,9-7.48,4.33-15,8.7a10.94,10.94,0,0,1-4.1,1.69,11.54,11.54,0,0,1-7.2-.91c-2.48-1.33-4.9-2.78-7.34-4.18l-9.86-5.67-2.78-1.59c-.34-.19-.57-.39-.31-.83,1.23-2.06,2.44-4.13,3.66-6.19,0-.08.15-.11.23-.17a29.39,29.39,0,0,1,3.3,1.82q8,4.6,16.06,9.24a3.8,3.8,0,0,0,4.12,0c5.08-3,10.18-5.91,15.27-8.87l.77-.41a4.15,4.15,0,0,1,1.85-1.35c4.6-2.64,9.17-5.33,13.77-8,.38-.22.73-.55,1.23-.5l4.5-2.61c.28-.57.86-.76,1.36-1,2.26-1.31,4.51-2.66,6.8-3.92a3.91,3.91,0,0,0,2.07-3.68c0-2.29,0-4.59,0-6.88A1.69,1.69,0,0,1,117.22,92Z"/><path id="e16f25b7-a9a8-4ea3-a711-ad7ee690bcbc" data-name="Path 90" class="a9378c2d-880a-4eea-8172-ba13f438d2db" d="M117.23,92c0,2.85.07,5.7,0,8.54a3.63,3.63,0,0,1-1.89,3.27c-2.87,1.63-5.69,3.34-8.58,4.92-1.15-2.1-2.48-4.1-3.74-6.14q-9.8-15.89-19.62-31.75c-.39-.63-.75-1.29-1.19-1.89a1,1,0,0,1,0-1.22c1.56-2.62,3.1-5.24,4.65-7.87l4.29-7.28a.78.78,0,0,1,.38-.4l2.25,3.47,13.55,21.1q4.59,7.16,9.19,14.32A2.89,2.89,0,0,0,117.23,92Z"/><path id="f3fb25d5-0682-4781-89a5-8ad8c7c96e54" data-name="Path 91" class="a9378c2d-880a-4eea-8172-ba13f438d2db" d="M102.26,111.36c-1.86,1.23-3.84,2.27-5.76,3.4-3.49,2-7,4.06-10.49,6.09l-.59.33a1.7,1.7,0,0,0-.4-.87l-9.35-14.68q-3.84-6-7.7-12a1.25,1.25,0,0,1-.06-1.5q5.16-8.7,10.28-17.41c.08-.14.14-.29.34-.34s.35.35.48.56l18.6,29.3,4,6.23a3.18,3.18,0,0,0,.69.93Z"/></g></g></g></g></svg>