<svg xmlns="http://www.w3.org/2000/svg" viewBox="0 0 855.73 147.87"><defs><style>.b2cd0cd8-201c-4493-983c-8d4823ed6f5b{fill:#1d86cc;}.a922883a-f9bb-41f0-94d7-f6d525784182,.ecdab3f8-fa05-45d1-9322-7529240bf587{fill:#fff;}.a2f703f4-b37c-47d8-af5d-b443c67a7369{fill:#2d374b;}.bf9e6582-c1d9-4bb4-9889-7ef36a3ae759{fill:#96bedc;}.b45ccb31-5feb-4f3c-addb-9b7b5bf2d24c{fill:#28a0f0;}.a6d9ce4a-77dc-4678-a440-845166de7206{fill:#2d364d;}.bd156d91-ef6a-4300-a0fb-4355990f9261{fill:#4c2d2d;}.a922883a-f9bb-41f0-94d7-f6d525784182{font-size:34.11px;font-family:Calibri-Bold, Calibri;font-weight:700;}.b49c5dd2-4b05-4ad7-ac88-186005a274d9{letter-spacing:-0.01em;}</style></defs><g id="e47b38ad-95dd-4740-a614-77b4e947aabe" data-name="Layer 2"><g id="ae76c16c-c856-49f9-bb45-4ca0588f10a0" data-name="arbirtum_horizonal_testnet"><g id="be500ef0-12e6-4dab-abba-293a8a4eb4cb" data-name="arbirtum logo"><g id="ebbc84b1-200d-4294-8755-02e696329b10" data-name="Group 1"><path id="f093d09b-801c-4b10-9e64-574a74051604" data-name="Polygon 1" class="b2cd0cd8-201c-4493-983c-8d4823ed6f5b" d="M134,100.86a20,20,0,0,1-10,17.34l-47,27a20,20,0,0,1-19.93,0l-47-27A20,20,0,0,1,0,100.86V47A20,20,0,0,1,10,29.67l47-27A20,20,0,0,1,77,2.66l47,27A20,20,0,0,1,134,47Z"/></g><g id="bd347628-28cb-41a3-958b-cb407076cadb" data-name="arbitrum"><path id="abe6bbfa-df5e-42f0-b3d8-0c94a71a7e88" data-name="Path 83" class="ecdab3f8-fa05-45d1-9322-7529240bf587" d="M61.21,10.18,14.81,37A11.6,11.6,0,0,0,9,47l0,53.66a11.59,11.59,0,0,0,5.79,10l46.45,26.86a11.61,11.61,0,0,0,11.6,0l46.4-26.8a11.57,11.57,0,0,0,5.8-10l0-53.65a11.63,11.63,0,0,0-5.8-10L72.81,10.19a11.56,11.56,0,0,0-11.6,0Z"/><path id="ae164f5c-827d-40ec-95c5-5021f9084830" data-name="Path 84" class="a2f703f4-b37c-47d8-af5d-b443c67a7369" d="M45.89,119.44a2.11,2.11,0,0,1,.46-1Q67.17,83.17,88,47.84c.19-.33.37-.67.53-1-.12-.21-.26-.17-.38-.17-5.93,0-11.86.06-17.8,0a1.25,1.25,0,0,0-1.18.79q-6.7,11.1-13.44,22.2l-28.51,47-.25.42c-.17.33-.36.38-.7.18-1.47-.87-3-1.72-4.53-2.62L64,46.92c-.09-.27-.28-.21-.42-.21-2.27-.07-4.54-.17-6.8-.19A25.24,25.24,0,0,0,47.47,48a13.17,13.17,0,0,0-6.58,5.35q-11.6,18.08-23.28,36.1l-.37.57c-.45,0-.38-.37-.43-.63a7.47,7.47,0,0,1,0-1.16c0-13.29,0-26.59,0-39.88A5.71,5.71,0,0,1,20,42.85C30.25,37,40.4,31.07,50.59,25.19c4.55-2.63,9.11-5.23,13.62-7.91a5.15,5.15,0,0,1,5.75,0c8.3,4.87,16.67,9.63,25,14.43l18.89,10.85c.45.26.89.53,1.34.78a4.35,4.35,0,0,1,2.31,4.1q0,21.69,0,43.38a2.67,2.67,0,0,1-.11,1.05c-.5.49-.68-.06-.86-.31-.75-1.06-1.43-2.17-2.12-3.26q-8.37-13.11-16.8-26.17c-1.89-3-3.8-5.88-5.67-8.84-.44-.69-.52-.7-1,0q-4.23,7.16-8.45,14.31a1.45,1.45,0,0,0,.17,1.7q3.48,5.63,7,11.25l11.86,19.18q2.4,3.89,4.81,7.77a2,2,0,0,1,.47,1.24c-.32.64-1,.82-1.55,1.11a11.58,11.58,0,0,1-3,1.55c-.57-.14-.78-.66-1-1.08-3.67-5.73-7.29-11.48-10.94-17.22C86.54,87.24,82.8,81.31,79,75.42c-.49-.75-.56-.76-1,0-3.27,5.51-6.51,11-9.79,16.56a1.47,1.47,0,0,0,.08,1.71c4.43,6.82,8.75,13.7,13.13,20.56,1.22,1.91,2.45,3.81,3.65,5.74.23.37.55.74.34,1.25a21.37,21.37,0,0,1-3.7,2.3l-12.28,7.13a4.07,4.07,0,0,1-4.4,0q-9-5.23-18.12-10.42A2.5,2.5,0,0,1,45.89,119.44Z"/><path id="b84f6008-d658-4cf8-babf-391e241186eb" data-name="Path 85" class="bf9e6582-c1d9-4bb4-9889-7ef36a3ae759" d="M117.22,92c0-.36,0-.71,0-1.07q0-21.65,0-43.28a4.49,4.49,0,0,0-2.46-4.27q-22.71-13-45.41-26.11a4.22,4.22,0,0,0-4.58,0q-12.6,7.34-25.23,14.61L19.31,43.62a4.22,4.22,0,0,0-2.27,4q.06,20.76.06,41.53c0,.3-.12.65.14.92-1.6,2.66-3.35,5.22-5,7.83l-2.54,3.91c-.14.21-.29.4-.56.77,0-.44,0-.68,0-.92q0-27.37,0-54.76a11,11,0,0,1,5.76-9.94c5.87-3.49,11.83-6.84,17.74-10.27,5-2.89,10-5.8,15-8.69,4.65-2.7,9.25-5.48,14-8a11.59,11.59,0,0,1,11.78.31c3.8,2.15,7.58,4.35,11.37,6.53l10.69,6.16,9.86,5.66L115,34.21c1.43.83,2.87,1.65,4.29,2.49a12,12,0,0,1,5.95,8.56,8.08,8.08,0,0,1,.06,1.55q0,27,0,53.89a11.57,11.57,0,0,1-4.16,9,13.79,13.79,0,0,1-2.4,1.47q-7.31,4.26-14.63,8.49-7.77,4.5-15.56,9-7.48,4.33-15,8.7a10.94,10.94,0,0,1-4.1,1.69,11.54,11.54,0,0,1-7.2-.91c-2.48-1.33-4.9-2.78-7.34-4.18l-9.86-5.67-2.78-1.59c-.34-.19-.57-.39-.31-.83,1.23-2.06,2.44-4.13,3.66-6.19,0-.08.15-.11.23-.17a29.39,29.39,0,0,1,3.3,1.82q8,4.6,16.06,9.24a3.8,3.8,0,0,0,4.12,0c5.08-3,10.18-5.91,15.27-8.87l.77-.41a4.15,4.15,0,0,1,1.85-1.35c4.6-2.64,9.17-5.33,13.77-8,.38-.22.73-.55,1.23-.5l4.5-2.61c.28-.57.86-.76,1.36-1,2.26-1.31,4.51-2.66,6.8-3.92a3.91,3.91,0,0,0,2.07-3.68c0-2.29,0-4.59,0-6.88A1.69,1.69,0,0,1,117.22,92Z"/><path id="b6f255d1-c58f-4689-b053-1045afec47be" data-name="Path 90" class="b45ccb31-5feb-4f3c-addb-9b7b5bf2d24c" d="M117.23,92c0,2.85.07,5.7,0,8.54a3.63,3.63,0,0,1-1.89,3.27c-2.87,1.63-5.69,3.34-8.58,4.92-1.15-2.1-2.48-4.1-3.74-6.14q-9.8-15.89-19.62-31.75c-.39-.63-.75-1.29-1.19-1.89a1,1,0,0,1,0-1.22c1.56-2.62,3.1-5.24,4.65-7.87l4.29-7.28a.78.78,0,0,1,.38-.4l2.25,3.47,13.55,21.1q4.59,7.16,9.19,14.32A2.89,2.89,0,0,0,117.23,92Z"/><path id="ecada346-7095-4927-b02d-d1940d2ff5ab" data-name="Path 91" class="b45ccb31-5feb-4f3c-addb-9b7b5bf2d24c" d="M102.26,111.36c-1.86,1.23-3.84,2.27-5.76,3.4-3.49,2-7,4.06-10.49,6.09l-.59.33a1.7,1.7,0,0,0-.4-.87l-9.35-14.68q-3.84-6-7.7-12a1.25,1.25,0,0,1-.06-1.5q5.16-8.7,10.28-17.41c.08-.14.14-.29.34-.34s.35.35.48.56l18.6,29.3,4,6.23a3.18,3.18,0,0,0,.69.93Z"/><path id="fec93282-576a-45d4-8519-33a718ae6f41" data-name="Path 86" class="a6d9ce4a-77dc-4678-a440-845166de7206" d="M694.53,74.42V59.3c0-.77,0-1.55,0-2.32.19-4,1.26-5.23,5.21-5.43,2.6-.13,5.22,0,7.84,0a5.33,5.33,0,0,1,5.12,3.58c1.73,4,3.49,8,5.21,12q3.52,8.11,7,16.24c.23.54.45,1.08.7,1.6s.68,1.18,1.5,1.13,1.14-.6,1.41-1.26.64-1.41.94-2.12Q735.06,70,740.59,57.17c.34-.79.72-1.58,1.08-2.39a5,5,0,0,1,4.48-3.18,48,48,0,0,1,9.28.06c2.58.33,3.49,1.32,3.84,3.93a26.82,26.82,0,0,1,.2,3.47q0,16,0,32c0,.49,0,1,0,1.46,0,1.31-.54,2-1.91,1.92-1.84,0-3.68,0-5.52,0a1.4,1.4,0,0,1-1.6-1.18,1.48,1.48,0,0,1,0-.42v-2q0-14,0-27.9c0-.76.51-1.93-.69-2.19s-1.29.92-1.64,1.67Q742.35,75,736.61,87.74c-.36.8-.74,1.58-1.13,2.35a7.89,7.89,0,0,1-7.21,4.42,9.88,9.88,0,0,1-11.15-7.05c-3.31-8-7.1-15.89-10.68-23.83-.2-.44-.39-.89-.6-1.32-.37-.74-.52-1.92-1.67-1.62s-.65,1.46-.65,2.24c0,9.2,0,18.41,0,27.61,0,.78,0,1.55,0,2.32,0,1.09-.6,1.56-1.65,1.56h-4.36c-2.92,0-2.94,0-3-2.87,0-4.75,0-9.49,0-14.24Z"/><path id="b5011794-72ab-4c98-8ba3-e7096fa07c93" data-name="Path 87" class="a6d9ce4a-77dc-4678-a440-845166de7206" d="M611.1,67.07V54.57c0-2.9.18-3,3.18-3.08,1.35,0,2.71-.06,4.07,0,1.87.09,2.11.37,2.21,2.27,0,.67,0,1.35,0,2,0,7.27-.07,14.53,0,21.8.08,6.4,1.83,8,8.22,8.06,5.62,0,11.24,0,16.86,0a22.47,22.47,0,0,0,2.32-.07,5.33,5.33,0,0,0,5.48-5.16c0-.15,0-.29,0-.43.13-1.54.13-3.1.13-4.65V55c0-3.46.06-3.5,3.62-3.52h2.91c2.79.06,3,.22,3,3,0,7.37,0,14.73,0,22.09a52.4,52.4,0,0,1-.39,6.38,11.45,11.45,0,0,1-10.21,10.94,21,21,0,0,1-4.32.51H626.12a23.61,23.61,0,0,1-4.89-.6,11.38,11.38,0,0,1-9.68-10.18,36.65,36.65,0,0,1-.5-6.37C611.13,73.85,611.1,70.46,611.1,67.07Z"/><path id="f0e12386-9231-443f-a7bf-6df98d50e8e2" data-name="Path 88" class="a6d9ce4a-77dc-4678-a440-845166de7206" d="M477.91,51.48h22.38c3,0,3.1.11,3.12,3.1,0,1.16,0,2.32,0,3.48-.07,2-.3,2.33-2.39,2.35-4.94.05-9.89,0-14.83,0-.67,0-1.35,0-2,0-1,0-1.38.48-1.35,1.43,0,.67,0,1.35,0,2V90.63c0,.68,0,1.36,0,2,0,1.15-.54,1.79-1.79,1.76q-2.91-.06-5.82,0c-1.39,0-1.9-.69-1.87-2,0-.68,0-1.36,0-2V62.81c0-2.34,0-2.36-2.37-2.36-5,0-10.08,0-15.11,0-3,0-3-.07-3.05-3.16V54.68c0-3.15,0-3.18,3.32-3.18Q467,51.46,477.91,51.48Z"/><path id="fe2d25e7-494b-4cdf-9a1b-e02191c1fb12" data-name="Path 89" class="a6d9ce4a-77dc-4678-a440-845166de7206" d="M423.23,73.13V91.69c0,2.68-.06,2.7-2.78,2.74-1.55,0-3.1,0-4.64,0-1.31,0-2-.47-2-1.85,0-.68,0-1.36,0-2V55.47c0-.67,0-1.35,0-2-.05-1.17.45-1.88,1.64-1.91q3-.08,6.09,0c1.63,0,1.68,1.21,1.67,2.46C423.22,60.37,423.23,66.75,423.23,73.13Z"/><path id="fcf37bc1-c8f2-4477-9122-88d148e9ec24" data-name="Path 92" class="a6d9ce4a-77dc-4678-a440-845166de7206" d="M379,72.37a10.3,10.3,0,0,0,3.71-10c0-.78,0-1.55-.07-2.32a8.1,8.1,0,0,0-7.77-8.23,44.07,44.07,0,0,0-5.5-.38c-10.37,0-20.73,0-31.1,0-.77,0-1.55,0-2.32,0a1.87,1.87,0,0,0-1.92,1.8c0,.1,0,.2,0,.3V92.29c0,1.38.6,2.2,2.1,2.15h35.42a28.53,28.53,0,0,0,3.2-.12,8.33,8.33,0,0,0,8.06-7.41,34.83,34.83,0,0,0,.26-5.5A9.36,9.36,0,0,0,379,72.37ZM343.49,61.79c0-1.19.33-1.73,1.63-1.73,8.21,0,16.43,0,24.64,0,3,0,3.95,1.3,4,4.49,0,3.35-1,4.6-4.07,4.69-4.05.13-8.12,0-12.17,0h0c-4.06,0-8.12,0-12.17,0-1.36,0-1.92-.35-1.84-1.79.09-1.93.06-3.87,0-5.8Zm29.9,22.29a2.65,2.65,0,0,1-2,1.56A22.18,22.18,0,0,1,368,86q-10.86,0-21.73,0c-2.72,0-2.73,0-2.75-2.69,0-1.74.08-3.48,0-5.21-.08-1.46.36-2,1.92-2,4,.09,7.92,0,11.88,0h0c3.86,0,7.73-.08,11.59,0a5.08,5.08,0,0,1,4.52,7.91Z"/><path id="e6a1c37c-222e-4bf0-aa9d-6ca3050f92ee" data-name="Path 93" class="a6d9ce4a-77dc-4678-a440-845166de7206" d="M302.44,90.85c-2.8-3.56-5.68-7.07-8.6-10.71.74-.29,1.25-.52,1.79-.68a9.32,9.32,0,0,0,6.75-7.92,31.88,31.88,0,0,0,0-11,9.6,9.6,0,0,0-8.81-8.64,40.48,40.48,0,0,0-5.5-.41c-9.78,0-19.55,0-29.34,0-.38,0-.77,0-1.16,0-2.3.13-2.71.52-2.82,2.73,0,.38,0,.77,0,1.16V92.56c0,1.35.67,1.91,2,1.88,1.65,0,3.29,0,4.94,0,2.36,0,2.5-.14,2.53-2.43,0-3,.06-6,0-9,0-1.4.3-2.09,1.92-2,5.42.1,10.84.08,16.26,0A2.91,2.91,0,0,1,285,82.34c1.7,2.35,3.45,4.68,5.26,7,1.32,1.66,2.19,3.91,4.06,4.83a13.84,13.84,0,0,0,6.3.28c1.16,0,2.78.74,3.39-.66C304.56,92.55,303.13,91.73,302.44,90.85ZM293.28,68c-.18,4-1.6,5.38-5.56,5.45-3.58.06-7.17,0-10.75,0s-7.17-.07-10.76,0c-1.52,0-2-.46-2-2,.08-3.19.06-6.39,0-9.58,0-1.35.42-1.89,1.84-1.88,7.36.06,14.71,0,22.06.05a4.41,4.41,0,0,1,5,3.68,4.88,4.88,0,0,1,0,1,22.63,22.63,0,0,1,.06,3.19Z"/><path id="ea5f7031-262b-442d-85b7-96835f796801" data-name="Path 94" class="a6d9ce4a-77dc-4678-a440-845166de7206" d="M581.35,91.91c-2.54-3.18-5.11-6.33-7.64-9.51A5.6,5.6,0,0,1,572.12,80c.38-.12.74-.26,1.1-.36a9.47,9.47,0,0,0,7.26-8.49,32,32,0,0,0-.2-11.25,9.44,9.44,0,0,0-8.48-8,34.85,34.85,0,0,0-5.2-.43q-15.11-.06-30.2,0c-3.31,0-3.46.17-3.46,3.44V91.26c0,.48,0,1,0,1.45,0,1.23.54,1.76,1.75,1.74,1.75,0,3.49,0,5.23,0,2.18,0,2.34-.19,2.38-2.3,0-2.91,0-5.81,0-8.71,0-2.56-.1-2.45,2.29-2.44,5.13,0,10.26.07,15.39,0a3.6,3.6,0,0,1,3.34,1.74c2.5,3.44,5.15,6.78,7.68,10.21a3.38,3.38,0,0,0,3.16,1.57c2-.09,4.07,0,6.1,0,.64,0,1.44.25,1.84-.49C582.57,93,581.81,92.48,581.35,91.91ZM571.27,69.22a4.31,4.31,0,0,1-4.16,4.1,17.78,17.78,0,0,1-2.31.09H544.53c-2.18,0-2.2,0-2.21-2.22q0-4.34,0-8.69c0-2.43,0-2.44,2.62-2.46h10.42c3.48,0,6.95,0,10.43,0,3.92.06,5.44,1.55,5.57,5.42a23.5,23.5,0,0,1-.09,3.75Z"/><path id="a704ab47-b084-457e-9790-33a0c33325ca" data-name="Path 95" class="a6d9ce4a-77dc-4678-a440-845166de7206" d="M225.19,92.72l-1.11-2L208.24,62c-1.17-2.11-2.36-4.21-3.5-6.34a7.92,7.92,0,0,0-6.83-4.19,9.79,9.79,0,0,0-10.72,6c-5.88,11.33-12.14,22.45-18.26,33.66a17.35,17.35,0,0,0-.83,1.53c-.61,1.41-.44,1.77,1.05,1.81,2.32.07,4.64,0,7,0a2.47,2.47,0,0,0,2.46-1.63c.86-1.72,1.92-3.36,2.69-5.13a3.08,3.08,0,0,1,3.35-2c7.07.09,14.13,0,21.2,0a12.3,12.3,0,0,1,4.87.22c1.51.7,1.88,2.81,2.76,4.3,2.92,5,1.21,4.09,6.46,4.18h4.33C225.48,94.4,225.73,93.74,225.19,92.72ZM206.66,78.51h-19.8c-.41-.7.08-1.16.34-1.65q3.87-7.29,7.78-14.57a9.38,9.38,0,0,1,.92-1.48.9.9,0,0,1,1.26-.25.77.77,0,0,1,.23.21,2.9,2.9,0,0,1,.44.74q4.42,8.16,8.82,16.32c.08.14,0,.36,0,.68Z"/></g></g><rect class="bd156d91-ef6a-4300-a0fb-4355990f9261" x="697.98" y="5.97" width="157.75" height="36.87" rx="14.5"/><text class="a922883a-f9bb-41f0-94d7-f6d525784182" transform="translate(704.37 35.21) scale(1.19 1)">T<tspan class="b49c5dd2-4b05-4ad7-ac88-186005a274d9" x="16.89" y="0">ES</tspan><tspan x="48.98" y="0">TNET</tspan></text></g></g></svg>